<?xml version="1.0" encoding="UTF-8" standalone="no"?><svg xmlns="http://www.w3.org/2000/svg" xmlns:xlink="http://www.w3.org/1999/xlink" fill="#000000" height="178" preserveAspectRatio="xMidYMid meet" version="1" viewBox="0.0 -0.0 1089.1 178.0" width="1089.1" zoomAndPan="magnify"><g data-name="Слой 2"><g data-name="Слой 1"><g id="change1_1"><rect fill="#f6e618" height="175" opacity="0.7" rx="85.23" width="1086.06" x="1.5" y="1.5"/></g><g id="change2_1"><path d="M1002.33,178H86.73A86.83,86.83,0,0,1,0,91.27V86.73A86.83,86.83,0,0,1,86.73,0h915.6a86.83,86.83,0,0,1,86.73,86.73v4.54A86.83,86.83,0,0,1,1002.33,178ZM86.73,3A83.82,83.82,0,0,0,3,86.73v4.54A83.82,83.82,0,0,0,86.73,175h915.6a83.82,83.82,0,0,0,83.73-83.73V86.73A83.82,83.82,0,0,0,1002.33,3Z" fill="#a9c6d8"/></g></g></g></svg>